<svg xmlns="http://www.w3.org/2000/svg" xmlns:xlink="http://www.w3.org/1999/xlink" xmlns:serif="http://www.serif.com/" width="100%" height="100%" viewBox="0 0 20 14" xml:space="preserve" style="fill-rule:evenodd;clip-rule:evenodd;stroke-linejoin:round;stroke-miterlimit:2;">    <g transform="matrix(1,0,0,1,-136.996,-392.466)">        <path d="M155.704,403.464C155.704,403.493 155.676,403.521 155.647,403.521L154.996,403.521C154.996,403.493 154.996,403.493 154.967,403.464C154.967,403.408 154.939,403.351 154.939,403.323C154.939,403.294 154.91,403.266 154.91,403.238C154.882,403.209 154.882,403.153 154.854,403.124C154.854,403.096 154.825,403.068 154.825,403.039C154.797,403.011 154.797,402.954 154.769,402.926C154.769,402.897 154.74,402.869 154.74,402.841C154.712,402.812 154.712,402.756 154.684,402.727C154.655,402.699 154.655,402.671 154.627,402.671C154.599,402.642 154.57,402.614 154.542,402.557C154.514,402.529 154.514,402.529 154.485,402.501C154.457,402.472 154.429,402.416 154.372,402.387C154.372,402.359 154.344,402.359 154.344,402.331C154.287,402.274 154.23,402.246 154.202,402.189L154.174,402.16C154.117,402.132 154.088,402.104 154.032,402.075C154.003,402.075 154.003,402.047 153.975,402.047C153.947,402.019 153.89,401.99 153.862,401.99C153.833,401.99 153.805,401.962 153.777,401.962C153.748,401.934 153.692,401.934 153.663,401.905C153.635,401.905 153.607,401.877 153.578,401.877C153.55,401.849 153.493,401.849 153.465,401.82C153.437,401.82 153.408,401.792 153.38,401.792C153.351,401.792 153.295,401.764 153.266,401.764C153.238,401.764 153.21,401.764 153.181,401.735C153.125,401.735 153.096,401.707 153.04,401.707L152.473,401.707C152.416,401.707 152.388,401.707 152.331,401.735C152.303,401.735 152.274,401.735 152.246,401.764C152.189,401.764 152.161,401.792 152.133,401.792C152.104,401.792 152.076,401.82 152.048,401.82C152.019,401.82 151.963,401.849 151.934,401.877C151.906,401.877 151.877,401.905 151.849,401.905C151.821,401.934 151.764,401.934 151.736,401.962C151.707,401.962 151.679,401.99 151.651,401.99C151.622,402.019 151.566,402.047 151.537,402.047C151.509,402.047 151.509,402.075 151.481,402.075C151.424,402.104 151.396,402.132 151.339,402.16L151.311,402.189C151.254,402.246 151.197,402.274 151.169,402.331C151.169,402.331 151.14,402.359 151.14,402.387C151.112,402.416 151.084,402.472 151.027,402.501C150.999,402.529 150.999,402.529 150.97,402.557C150.942,402.586 150.914,402.614 150.885,402.671C150.857,402.699 150.857,402.727 150.829,402.727C150.8,402.756 150.772,402.784 150.772,402.841C150.744,402.869 150.744,402.897 150.744,402.926C150.715,402.954 150.715,403.011 150.687,403.039C150.687,403.068 150.659,403.096 150.659,403.124C150.63,403.153 150.63,403.209 150.602,403.238C150.602,403.266 150.574,403.294 150.574,403.323C150.545,403.379 150.545,403.408 150.545,403.464C150.545,403.493 150.545,403.493 150.517,403.521L147.966,403.521L147.994,403.493C148.051,403.464 148.079,403.408 148.136,403.379C148.164,403.351 148.164,403.351 148.193,403.323C148.221,403.294 148.278,403.266 148.306,403.209C148.334,403.181 148.363,403.181 148.363,403.153C148.391,403.124 148.419,403.096 148.476,403.039C148.504,403.011 148.504,402.982 148.533,402.982C148.561,402.954 148.589,402.897 148.646,402.869C148.674,402.841 148.674,402.841 148.703,402.812C148.759,402.756 148.788,402.699 148.844,402.642L148.844,402.614C148.901,402.557 148.93,402.501 148.986,402.416C149.015,402.387 149.015,402.359 149.015,402.359C149.043,402.302 149.071,402.274 149.1,402.217C149.128,402.189 149.128,402.16 149.156,402.132C149.185,402.075 149.213,402.047 149.213,401.99C149.241,401.962 149.241,401.934 149.241,401.905C149.27,401.849 149.298,401.82 149.298,401.764C149.298,401.735 149.326,401.707 149.326,401.679C149.355,401.622 149.383,401.565 149.383,401.509C149.383,401.48 149.411,401.48 149.411,401.452C149.44,401.367 149.468,401.31 149.496,401.225C149.496,401.197 149.496,401.197 149.525,401.168C149.553,401.112 149.553,401.055 149.581,400.998C149.581,400.97 149.581,400.942 149.61,400.913C149.61,400.857 149.638,400.8 149.638,400.772C149.638,400.743 149.638,400.715 149.667,400.686C149.667,400.63 149.695,400.573 149.695,400.545L149.695,400.46C149.695,400.403 149.695,400.346 149.723,400.29L149.723,396.775L152.388,396.775C152.614,396.775 152.841,396.916 152.926,397.143L153.833,399.723L155.307,400.346C155.534,400.431 155.704,400.686 155.704,400.913L155.704,403.464ZM152.785,405.364C152.019,405.364 151.396,404.74 151.396,403.975C151.396,403.209 152.019,402.586 152.785,402.586C153.55,402.586 154.174,403.209 154.174,403.975C154.174,404.74 153.55,405.364 152.785,405.364ZM144.082,403.521C144.082,403.493 144.082,403.493 144.054,403.464C144.054,403.408 144.026,403.351 144.026,403.323C144.026,403.294 143.997,403.266 143.997,403.238C143.969,403.209 143.969,403.153 143.941,403.124C143.941,403.096 143.912,403.068 143.912,403.039C143.884,403.011 143.884,402.954 143.856,402.926C143.856,402.897 143.827,402.869 143.827,402.841C143.799,402.812 143.771,402.756 143.771,402.727C143.742,402.699 143.742,402.671 143.714,402.671C143.686,402.642 143.657,402.614 143.629,402.557C143.6,402.529 143.6,402.529 143.572,402.501C143.544,402.472 143.515,402.416 143.459,402.387C143.459,402.359 143.43,402.359 143.43,402.331C143.374,402.274 143.317,402.246 143.289,402.189L143.26,402.16C143.204,402.132 143.175,402.104 143.119,402.075C143.09,402.075 143.09,402.047 143.062,402.047C143.034,402.019 142.977,401.99 142.949,401.99C142.92,401.99 142.892,401.962 142.863,401.962C142.835,401.934 142.778,401.934 142.75,401.905C142.722,401.905 142.693,401.877 142.665,401.877C142.637,401.849 142.58,401.849 142.552,401.82C142.523,401.82 142.495,401.792 142.467,401.792C142.438,401.792 142.382,401.764 142.353,401.764C142.325,401.764 142.297,401.764 142.268,401.735C142.212,401.735 142.183,401.707 142.126,401.707L141.56,401.707C141.503,401.707 141.475,401.707 141.418,401.735C141.389,401.735 141.361,401.735 141.333,401.764C141.276,401.764 141.248,401.792 141.219,401.792C141.191,401.792 141.163,401.82 141.134,401.82C141.106,401.82 141.049,401.849 141.021,401.877C140.993,401.877 140.964,401.905 140.936,401.905C140.908,401.934 140.851,401.934 140.823,401.962C140.794,401.962 140.766,401.99 140.738,401.99C140.709,402.019 140.652,402.047 140.624,402.047C140.596,402.047 140.596,402.075 140.567,402.075C140.511,402.104 140.482,402.132 140.426,402.16L140.397,402.189C140.341,402.246 140.284,402.274 140.256,402.331C140.227,402.331 140.227,402.359 140.227,402.387C140.199,402.416 140.171,402.472 140.114,402.501C140.086,402.529 140.086,402.529 140.057,402.557C140.029,402.586 140.001,402.614 139.972,402.671C139.944,402.699 139.944,402.727 139.916,402.727C139.887,402.756 139.859,402.784 139.859,402.841C139.83,402.869 139.83,402.897 139.83,402.926C139.802,402.954 139.802,403.011 139.774,403.039C139.774,403.068 139.745,403.096 139.745,403.124C139.717,403.153 139.717,403.209 139.689,403.238C139.689,403.266 139.66,403.294 139.66,403.323C139.632,403.379 139.632,403.408 139.632,403.464C139.632,403.493 139.632,403.493 139.604,403.521L137.931,403.521C137.903,403.521 137.875,403.493 137.875,403.464L137.875,401.168C137.875,400.857 138.101,400.601 138.385,400.545L142.041,399.836L143.175,397.172C143.26,396.973 143.459,396.831 143.686,396.831L145.358,396.831C146.775,396.831 148.051,396.151 148.873,395.074L148.873,400.006C148.873,401.934 147.314,403.521 145.358,403.521L144.082,403.521ZM141.843,405.364C141.078,405.364 140.454,404.74 140.454,403.975C140.454,403.209 141.078,402.586 141.843,402.586C142.608,402.586 143.232,403.209 143.232,403.975C143.232,404.74 142.608,405.364 141.843,405.364ZM155.676,399.609L154.57,399.156L153.777,396.945C153.578,396.378 153.04,395.981 152.416,395.981L149.752,395.981L149.752,392.466L148.873,392.466C148.873,394.394 147.314,395.981 145.358,395.981L143.686,395.981C143.09,395.981 142.58,396.321 142.353,396.86L141.418,399.099L138.215,399.694C137.506,399.836 136.996,400.46 136.996,401.168L136.996,403.464C136.996,403.975 137.421,404.4 137.931,404.4L139.604,404.4C139.802,405.449 140.738,406.242 141.843,406.242C142.949,406.242 143.884,405.449 144.082,404.4L150.545,404.4C150.744,405.449 151.679,406.242 152.785,406.242C153.89,406.242 154.825,405.449 155.024,404.4L155.676,404.4C156.186,404.4 156.611,403.975 156.611,403.464L156.611,400.998C156.611,400.403 156.243,399.836 155.676,399.609Z" style="fill:rgb(46,58,120);fill-rule:nonzero;"></path>    </g></svg>